<svg width="404.0478515625" height="256.8" viewBox="-202.02392578125 -22.0 404.0478515625 256.8" xmlns="http://www.w3.org/2000/svg" role="img">
<title>Build versus buy</title>
<desc>Build versus buy</desc>
  <defs><marker id="arrow" viewBox="-10 -4 10 8" refX="0" refY="0" orient="auto" markerWidth="10" markerHeight="8"><path d="M -10 -4 L 0 0 L -10 4 Z" fill="rgba(0,0,0,1.0)" stroke="rgba(0,0,0,0.0)" stroke-width="1.0"   /></marker><marker id="prism-arrow" viewBox="-5 -2 5 4" refX="0" refY="0" orient="auto" markerWidth="5" markerHeight="4"><path d="M -5 -2 L 0 0 L -5 2 Z" fill="rgba(110,110,110,1.0)" stroke="rgba(110,110,110,1.0)" stroke-width="0"   /></marker></defs>
  <g transform="translate(0.0 106.4) rotate(0.0) scale(1.0 1.0)">
<rect x="-202.02392578125" y="-128.4" width="404.0478515625" height="256.8" stroke="rgba(0,0,0,0.0)" fill="rgba(255,255,255,1.0)" />
</g>
  <g transform="translate(0.0 8.5) rotate(0.0) scale(1.0 1.0)">
<text x="0" y="0" font-family='"Courier New", monospace' font-size="17.0" font-weight="700" fill="rgba(20,20,20,1.0)" text-anchor="middle" dominant-baseline="middle">Build versus buy</text>
</g>
<g transform="translate(-180.02392578125 39.0) rotate(0.0) scale(1.0 1.0)">
<g transform="translate(39.00634765625 19.4) rotate(0.0) scale(1.0 1.0)">

</g>
<g transform="translate(128.469140625 19.4) rotate(0.0) scale(1.0 1.0)">
<rect x="-11.0" y="-19.4" width="80.305859375" height="38.8" rx="0.0" ry="0.0" fill="rgba(255,255,255,1.0)" stroke="rgba(20,20,20,1.0)" stroke-width="2.4" />
<g transform="translate(8.399999999999999 0.0) rotate(0.0) scale(1.0 1.0)">
<g transform="scale(0.6999999999999998) translate(-12.0 -12.0)"><path d="M15 12l-9.373 9.373a1 1 0 0 1-3.001-3L12 9M18 15l4-4M21.5 11.5l-1.914-1.914A2 2 0 0 1 19 8.172v-.344a2 2 0 0 0-.586-1.414l-1.657-1.657A6 6 0 0 0 12.516 3H9l1.243 1.243A6 6 0 0 1 12 8.485V10l2 2h1.172a2 2 0 0 1 1.414.586L18.5 14.5" fill="none" stroke="rgba(20,20,20,1.0)" stroke-width="1.7142857142857146" stroke-linecap="round" stroke-linejoin="round"/></g>
</g>
<g transform="translate(40.3029296875 -6.0) rotate(0.0) scale(1.0 1.0)">
<g transform="translate(0.0 6.0) rotate(0.0) scale(1.0 1.0)">
<text x="0" y="0" font-family='"Courier New", monospace' font-size="12.0" font-weight="700" fill="rgba(20,20,20,1.0)" text-anchor="middle" dominant-baseline="middle">Build</text>
</g>
</g>
</g>
<g transform="translate(276.687890625 19.4) rotate(0.0) scale(1.0 1.0)">
<rect x="-11.0" y="-19.4" width="65.903515625" height="38.8" rx="0.0" ry="0.0" fill="rgba(255,255,255,1.0)" stroke="rgba(74,74,74,1.0)" stroke-width="2.4" />
<g transform="translate(8.399999999999999 0.0) rotate(0.0) scale(1.0 1.0)">
<g transform="scale(0.6999999999999998) translate(-12.0 -12.0)"><path d="M7.0 21.0a1.0 1.0 0 1 0 2.0 0a1.0 1.0 0 1 0 -2.0 0ZM18.0 21.0a1.0 1.0 0 1 0 2.0 0a1.0 1.0 0 1 0 -2.0 0ZM2.05 2.05h2l2.66 12.42a2 2 0 0 0 2 1.58h9.78a2 2 0 0 0 1.95-1.57l1.65-7.43H5.12" fill="none" stroke="rgba(20,20,20,1.0)" stroke-width="1.7142857142857146" stroke-linecap="round" stroke-linejoin="round"/></g>
</g>
<g transform="translate(33.1017578125 -6.0) rotate(0.0) scale(1.0 1.0)">
<g transform="translate(0.0 6.0) rotate(0.0) scale(1.0 1.0)">
<text x="0" y="0" font-family='"Courier New", monospace' font-size="12.0" font-weight="700" fill="rgba(20,20,20,1.0)" text-anchor="middle" dominant-baseline="middle">Buy</text>
</g>
</g>
</g>
<g transform="translate(39.00634765625 61.8) rotate(0.0) scale(1.0 1.0)">
<g transform="translate(0.0 5.0) rotate(0.0) scale(1.0 1.0)">
<text x="0" y="0" font-family='"Courier New", monospace' font-size="10.0" font-weight="400" fill="rgba(110,110,110,1.0)" text-anchor="middle" dominant-baseline="middle">Time to value</text>
</g>
</g>
<g transform="translate(157.6220703125 60.8) rotate(0.0) scale(1.0 1.0)">
<rect x="-47.005859375" y="-11.0" width="94.01171875" height="34.0" rx="0.0" ry="0.0" fill="rgba(255,255,255,1.0)" stroke="rgba(196,196,196,1.0)" stroke-width="1.2" />
<g transform="translate(0.0 6.0) rotate(0.0) scale(1.0 1.0)">
<text x="0" y="0" font-family='"Courier New", monospace' font-size="12.0" font-weight="700" fill="rgba(20,20,20,1.0)" text-anchor="middle" dominant-baseline="middle">6-9 months</text>
</g>
</g>
<g transform="translate(298.6396484375 60.8) rotate(0.0) scale(1.0 1.0)">
<rect x="-36.2041015625" y="-11.0" width="72.408203125" height="34.0" rx="0.0" ry="0.0" fill="rgba(255,255,255,1.0)" stroke="rgba(196,196,196,1.0)" stroke-width="1.2" />
<g transform="translate(0.0 6.0) rotate(0.0) scale(1.0 1.0)">
<text x="0" y="0" font-family='"Courier New", monospace' font-size="12.0" font-weight="700" fill="rgba(20,20,20,1.0)" text-anchor="middle" dominant-baseline="middle">2 weeks</text>
</g>
</g>
<g transform="translate(39.00634765625 106.8) rotate(0.0) scale(1.0 1.0)">
<g transform="translate(0.0 5.0) rotate(0.0) scale(1.0 1.0)">
<text x="0" y="0" font-family='"Courier New", monospace' font-size="10.0" font-weight="400" fill="rgba(110,110,110,1.0)" text-anchor="middle" dominant-baseline="middle">Ongoing cost</text>
</g>
</g>
<g transform="translate(157.6220703125 105.8) rotate(0.0) scale(1.0 1.0)">
<rect x="-68.609375" y="-11.0" width="137.21875" height="34.0" rx="0.0" ry="0.0" fill="rgba(255,255,255,1.0)" stroke="rgba(196,196,196,1.0)" stroke-width="1.2" />
<g transform="translate(0.0 6.0) rotate(0.0) scale(1.0 1.0)">
<text x="0" y="0" font-family='"Courier New", monospace' font-size="12.0" font-weight="700" fill="rgba(20,20,20,1.0)" text-anchor="middle" dominant-baseline="middle">Engineering time</text>
</g>
</g>
<g transform="translate(298.6396484375 105.8) rotate(0.0) scale(1.0 1.0)">
<rect x="-54.20703125" y="-11.0" width="108.4140625" height="34.0" rx="0.0" ry="0.0" fill="rgba(255,255,255,1.0)" stroke="rgba(196,196,196,1.0)" stroke-width="1.2" />
<g transform="translate(0.0 6.0) rotate(0.0) scale(1.0 1.0)">
<text x="0" y="0" font-family='"Courier New", monospace' font-size="12.0" font-weight="700" fill="rgba(20,20,20,1.0)" text-anchor="middle" dominant-baseline="middle">Subscription</text>
</g>
</g>
<g transform="translate(39.00634765625 151.8) rotate(0.0) scale(1.0 1.0)">
<g transform="translate(0.0 5.0) rotate(0.0) scale(1.0 1.0)">
<text x="0" y="0" font-family='"Courier New", monospace' font-size="10.0" font-weight="400" fill="rgba(110,110,110,1.0)" text-anchor="middle" dominant-baseline="middle">Control</text>
</g>
</g>
<g transform="translate(157.6220703125 150.8) rotate(0.0) scale(1.0 1.0)">
<rect x="-29.0029296875" y="-11.0" width="58.005859375" height="34.0" rx="0.0" ry="0.0" fill="rgba(255,255,255,1.0)" stroke="rgba(196,196,196,1.0)" stroke-width="1.2" />
<g transform="translate(0.0 6.0) rotate(0.0) scale(1.0 1.0)">
<text x="0" y="0" font-family='"Courier New", monospace' font-size="12.0" font-weight="700" fill="rgba(20,20,20,1.0)" text-anchor="middle" dominant-baseline="middle">Total</text>
</g>
</g>
<g transform="translate(298.6396484375 150.8) rotate(0.0) scale(1.0 1.0)">
<rect x="-61.408203125" y="-11.0" width="122.81640625" height="34.0" rx="0.0" ry="0.0" fill="rgba(255,255,255,1.0)" stroke="rgba(196,196,196,1.0)" stroke-width="1.2" />
<g transform="translate(0.0 6.0) rotate(0.0) scale(1.0 1.0)">
<text x="0" y="0" font-family='"Courier New", monospace' font-size="12.0" font-weight="700" fill="rgba(20,20,20,1.0)" text-anchor="middle" dominant-baseline="middle">Vendor roadmap</text>
</g>
</g>
</g>
</svg>