<svg width="305.21728515625" height="290.20000000000005" viewBox="-152.608642578125 -24.0 305.21728515625 290.20000000000005" xmlns="http://www.w3.org/2000/svg" role="img">
<title>System decomposition</title>
<desc>System decomposition</desc>
  <defs><marker id="arrow" viewBox="-10 -4 10 8" refX="0" refY="0" orient="auto" markerWidth="10" markerHeight="8"><path d="M -10 -4 L 0 0 L -10 4 Z" fill="rgba(0,0,0,1.0)" stroke="rgba(0,0,0,0.0)" stroke-width="1.0"   /></marker><marker id="prism-arrow" viewBox="-5 -2 5 4" refX="0" refY="0" orient="auto" markerWidth="5" markerHeight="4"><path d="M -5 -2 L 0 0 L -5 2 Z" fill="rgba(107,114,128,1.0)" stroke="rgba(107,114,128,1.0)" stroke-width="0"   /></marker></defs>
  <g transform="translate(0.0 121.10000000000002) rotate(0.0) scale(1.0 1.0)">
<rect x="-152.608642578125" y="-145.10000000000002" width="305.21728515625" height="290.20000000000005" stroke="rgba(0,0,0,0.0)" fill="rgba(255,255,255,1.0)" />
</g>
  <g transform="translate(0.0 10.0) rotate(0.0) scale(1.0 1.0)">
<text x="0" y="0" font-family="Arial, Helvetica, sans-serif" font-size="20.0" font-weight="700" fill="rgba(17,24,39,1.0)" text-anchor="middle" dominant-baseline="middle">System decomposition</text>
</g>
<g transform="translate(0.0 44.0) rotate(0.0) scale(1.0 1.0)">
<g transform="translate(-38.464990234375 21.1) rotate(0.0) scale(1.0 1.0)">
<rect x="-12.0" y="-21.1" width="100.92998046875" height="42.2" rx="6.0" ry="6.0" fill="rgba(255,255,255,1.0)" stroke="rgba(209,213,219,1.0)" stroke-width="1.5" />
<g transform="translate(9.1 0.0) rotate(0.0) scale(1.0 1.0)">
<g transform="scale(0.7583333333333333) translate(-12.0 -12.0)"><path d="M21 8a2 2 0 0 0-1-1.73l-7-4a2 2 0 0 0-2 0l-7 4A2 2 0 0 0 3 8v8a2 2 0 0 0 1 1.73l7 4a2 2 0 0 0 2 0l7-4A2 2 0 0 0 21 16ZM3.3 7l8.7 5 8.7-5M12 22V12" fill="none" stroke="rgba(17,24,39,1.0)" stroke-width="1.978021978021978" stroke-linecap="round" stroke-linejoin="round"/></g>
</g>
<g transform="translate(50.564990234375 -6.5) rotate(0.0) scale(1.0 1.0)">
<g transform="translate(0.0 6.5) rotate(0.0) scale(1.0 1.0)">
<text x="0" y="0" font-family="Arial, Helvetica, sans-serif" font-size="13.0" font-weight="700" fill="rgba(17,24,39,1.0)" text-anchor="middle" dominant-baseline="middle">Platform</text>
</g>
</g>
</g>
<g transform="translate(-72.755908203125 101.70000000000002) rotate(0.0) scale(1.0 1.0)">
<rect x="-12.0" y="-21.1" width="69.8708984375" height="42.2" rx="6.0" ry="6.0" fill="rgba(255,255,255,1.0)" stroke="rgba(209,213,219,1.0)" stroke-width="1.5" />
<g transform="translate(9.1 0.0) rotate(0.0) scale(1.0 1.0)">
<g transform="scale(0.7583333333333333) translate(-12.0 -12.0)"><path d="M4.0 2.0h16.0a2.0 2.0 0 0 1 2.0 2.0v4.0a2.0 2.0 0 0 1 -2.0 2.0h-16.0a2.0 2.0 0 0 1 -2.0 -2.0v-4.0a2.0 2.0 0 0 1 2.0 -2.0ZM4.0 14.0h16.0a2.0 2.0 0 0 1 2.0 2.0v4.0a2.0 2.0 0 0 1 -2.0 2.0h-16.0a2.0 2.0 0 0 1 -2.0 -2.0v-4.0a2.0 2.0 0 0 1 2.0 -2.0ZM6.0 6.0L6.01 6.0M6.0 18.0L6.01 18.0" fill="none" stroke="rgba(17,24,39,1.0)" stroke-width="1.978021978021978" stroke-linecap="round" stroke-linejoin="round"/></g>
</g>
<g transform="translate(35.03544921875 -6.5) rotate(0.0) scale(1.0 1.0)">
<g transform="translate(0.0 6.5) rotate(0.0) scale(1.0 1.0)">
<text x="0" y="0" font-family="Arial, Helvetica, sans-serif" font-size="13.0" font-weight="700" fill="rgba(17,24,39,1.0)" text-anchor="middle" dominant-baseline="middle">API</text>
</g>
</g>
</g>
<g transform="translate(-101.80908203125 173.20000000000002) rotate(0.0) scale(1.0 1.0)">
<rect x="-26.799560546875" y="-12.0" width="53.59912109375" height="37.0" rx="6.0" ry="6.0" fill="rgba(255,255,255,1.0)" stroke="rgba(209,213,219,1.0)" stroke-width="1.5" />
<g transform="translate(0.0 6.5) rotate(0.0) scale(1.0 1.0)">
<text x="0" y="0" font-family="Arial, Helvetica, sans-serif" font-size="13.0" font-weight="700" fill="rgba(17,24,39,1.0)" text-anchor="middle" dominant-baseline="middle">Auth</text>
</g>
</g>
<g transform="translate(-19.15087890625 173.20000000000002) rotate(0.0) scale(1.0 1.0)">
<rect x="-31.858642578125" y="-12.0" width="63.71728515625" height="37.0" rx="6.0" ry="6.0" fill="rgba(255,255,255,1.0)" stroke="rgba(209,213,219,1.0)" stroke-width="1.5" />
<g transform="translate(0.0 6.5) rotate(0.0) scale(1.0 1.0)">
<text x="0" y="0" font-family="Arial, Helvetica, sans-serif" font-size="13.0" font-weight="700" fill="rgba(17,24,39,1.0)" text-anchor="middle" dominant-baseline="middle">Billing</text>
</g>
</g>
<g transform="translate(21.114990234375 101.70000000000002) rotate(0.0) scale(1.0 1.0)">
<rect x="-12.0" y="-21.1" width="75.64091796875" height="42.2" rx="6.0" ry="6.0" fill="rgba(255,255,255,1.0)" stroke="rgba(209,213,219,1.0)" stroke-width="1.5" />
<g transform="translate(9.1 0.0) rotate(0.0) scale(1.0 1.0)">
<g transform="scale(0.7583333333333333) translate(-12.0 -12.0)"><path d="M2.0 12.0a10.0 10.0 0 1 0 20.0 0a10.0 10.0 0 1 0 -20.0 0ZM12 2a14.5 14.5 0 0 0 0 20 14.5 14.5 0 0 0 0-20M2 12h20" fill="none" stroke="rgba(17,24,39,1.0)" stroke-width="1.978021978021978" stroke-linecap="round" stroke-linejoin="round"/></g>
</g>
<g transform="translate(37.920458984375 -6.5) rotate(0.0) scale(1.0 1.0)">
<g transform="translate(0.0 6.5) rotate(0.0) scale(1.0 1.0)">
<text x="0" y="0" font-family="Arial, Helvetica, sans-serif" font-size="13.0" font-weight="700" fill="rgba(17,24,39,1.0)" text-anchor="middle" dominant-baseline="middle">Web</text>
</g>
</g>
</g>
<g transform="translate(82.658203125 173.20000000000002) rotate(0.0) scale(1.0 1.0)">
<rect x="-45.950439453125" y="-12.0" width="91.90087890625" height="37.0" rx="6.0" ry="6.0" fill="rgba(255,255,255,1.0)" stroke="rgba(209,213,219,1.0)" stroke-width="1.5" />
<g transform="translate(0.0 6.5) rotate(0.0) scale(1.0 1.0)">
<text x="0" y="0" font-family="Arial, Helvetica, sans-serif" font-size="13.0" font-weight="700" fill="rgba(17,24,39,1.0)" text-anchor="middle" dominant-baseline="middle">Dashboard</text>
</g>
</g>
<path d="M -49.820458984375 122.80000000000001 L -101.80908203125 161.20000000000002" fill="rgba(0,0,0,0.0)" stroke="rgba(107,114,128,1.0)" stroke-width="1.5"  marker-end="url(#prism-arrow)" />
<path d="M -49.820458984375 122.80000000000001 L -19.15087890625 161.20000000000002" fill="rgba(0,0,0,0.0)" stroke="rgba(107,114,128,1.0)" stroke-width="1.5"  marker-end="url(#prism-arrow)" />
<path d="M 0.0 42.2 L -49.820458984375 80.60000000000002" fill="rgba(0,0,0,0.0)" stroke="rgba(107,114,128,1.0)" stroke-width="1.5"  marker-end="url(#prism-arrow)" />
<path d="M 46.93544921875 122.80000000000001 L 82.658203125 161.20000000000002" fill="rgba(0,0,0,0.0)" stroke="rgba(107,114,128,1.0)" stroke-width="1.5"  marker-end="url(#prism-arrow)" />
<path d="M 0.0 42.2 L 46.93544921875 80.60000000000002" fill="rgba(0,0,0,0.0)" stroke="rgba(107,114,128,1.0)" stroke-width="1.5"  marker-end="url(#prism-arrow)" />
</g>
</svg>