<svg width="500.0" height="564.0" viewBox="-250.0 -26.0 500.0 564.0" xmlns="http://www.w3.org/2000/svg" role="img">
<title>Effort versus impact</title>
<desc>Effort versus impact</desc>
  <defs><marker id="arrow" viewBox="-10 -4 10 8" refX="0" refY="0" orient="auto" markerWidth="10" markerHeight="8"><path d="M -10 -4 L 0 0 L -10 4 Z" fill="rgba(0,0,0,1.0)" stroke="rgba(0,0,0,0.0)" stroke-width="1.0"   /></marker><marker id="prism-arrow" viewBox="-5 -2 5 4" refX="0" refY="0" orient="auto" markerWidth="5" markerHeight="4"><path d="M -5 -2 L 0 0 L -5 2 Z" fill="rgba(140,123,99,1.0)" stroke="rgba(140,123,99,1.0)" stroke-width="0"   /></marker></defs>
  <g transform="translate(0.0 256.0) rotate(0.0) scale(1.0 1.0)">
<rect x="-250.0" y="-282.0" width="500.0" height="564.0" stroke="rgba(0,0,0,0.0)" fill="rgba(253,251,246,1.0)" />
</g>
  <g transform="translate(0.0 11.0) rotate(0.0) scale(1.0 1.0)">
<text x="0" y="0" font-family='"Times New Roman", Times, serif' font-size="22.0" font-weight="700" fill="rgba(47,37,25,1.0)" text-anchor="middle" dominant-baseline="middle">Effort versus impact</text>
</g>
<g transform="translate(13.0 280.0) rotate(0.0) scale(1.0 1.0)">
<rect x="-200.0" y="-200.0" width="400.0" height="400.0" stroke="rgba(221,208,186,1.0)" fill="rgba(253,251,246,1.0)" />
<path d="M -200.0 0 L 200.0 0" fill="rgba(0,0,0,0.0)" stroke="rgba(221,208,186,1.0)" stroke-width="1.2"   />
<path d="M 0 -200.0 L 0 200.0" fill="rgba(0,0,0,0.0)" stroke="rgba(221,208,186,1.0)" stroke-width="1.2"   />
<g transform="translate(-180.5 -180.5) rotate(0.0) scale(1.0 1.0)">
<text x="0" y="0" font-family='"Times New Roman", Times, serif' font-size="11.0" font-weight="700" fill="rgba(140,123,99,1.0)" text-anchor="start" dominant-baseline="middle">Quick wins</text>
</g>
<g transform="translate(180.5 -180.5) rotate(0.0) scale(1.0 1.0)">
<text x="0" y="0" font-family='"Times New Roman", Times, serif' font-size="11.0" font-weight="700" fill="rgba(140,123,99,1.0)" text-anchor="end" dominant-baseline="middle">Big bets</text>
</g>
<g transform="translate(-180.5 180.5) rotate(0.0) scale(1.0 1.0)">
<text x="0" y="0" font-family='"Times New Roman", Times, serif' font-size="11.0" font-weight="700" fill="rgba(140,123,99,1.0)" text-anchor="start" dominant-baseline="middle">Fill-ins</text>
</g>
<g transform="translate(180.5 180.5) rotate(0.0) scale(1.0 1.0)">
<text x="0" y="0" font-family='"Times New Roman", Times, serif' font-size="11.0" font-weight="700" fill="rgba(140,123,99,1.0)" text-anchor="end" dominant-baseline="middle">Thankless</text>
</g>
<g transform="translate(0.0 226.0) rotate(0.0) scale(1.0 1.0)">
<text x="0" y="0" font-family='"Times New Roman", Times, serif' font-size="12.0" font-weight="400" fill="rgba(47,37,25,1.0)" text-anchor="middle" dominant-baseline="middle">Effort</text>
</g>
<g transform="translate(-183.341796875 -226.0) rotate(0.0) scale(1.0 1.0)">
<text x="0" y="0" font-family='"Times New Roman", Times, serif' font-size="12.0" font-weight="400" fill="rgba(47,37,25,1.0)" text-anchor="middle" dominant-baseline="middle">Impact</text>
</g>
<g transform="translate(-200.0 213.0) rotate(0.0) scale(1.0 1.0)">
<text x="0" y="0" font-family='"Times New Roman", Times, serif' font-size="11.0" font-weight="400" fill="rgba(140,123,99,1.0)" text-anchor="middle" dominant-baseline="middle">Low</text>
</g>
<g transform="translate(200.0 213.0) rotate(0.0) scale(1.0 1.0)">
<text x="0" y="0" font-family='"Times New Roman", Times, serif' font-size="11.0" font-weight="400" fill="rgba(140,123,99,1.0)" text-anchor="middle" dominant-baseline="middle">High</text>
</g>
<g transform="translate(-226.0 200.0) rotate(0.0) scale(1.0 1.0)">
<text x="0" y="0" font-family='"Times New Roman", Times, serif' font-size="11.0" font-weight="400" fill="rgba(140,123,99,1.0)" text-anchor="middle" dominant-baseline="middle">Low</text>
</g>
<g transform="translate(-226.0 -200.0) rotate(0.0) scale(1.0 1.0)">
<text x="0" y="0" font-family='"Times New Roman", Times, serif' font-size="11.0" font-weight="400" fill="rgba(140,123,99,1.0)" text-anchor="middle" dominant-baseline="middle">High</text>
</g>
<g transform="translate(120.00000000000001 -140.0) rotate(0.0) scale(1.0 1.0)">
<circle cx="0" cy="0" r="5.0" stroke="rgba(253,251,246,1.0)" fill="rgba(140,90,43,1.0)" />
</g>
<g transform="translate(120.00000000000001 -165.5) rotate(0.0) scale(1.0 1.0)">
<g transform="translate(0.0 7.0) rotate(0.0) scale(1.0 1.0)">
<text x="0" y="0" font-family='"Times New Roman", Times, serif' font-size="14.0" font-weight="700" fill="rgba(47,37,25,1.0)" text-anchor="middle" dominant-baseline="middle">Search rewrite</text>
</g>
</g>
<g transform="translate(-120.0 -79.99999999999999) rotate(0.0) scale(1.0 1.0)">
<circle cx="0" cy="0" r="5.0" stroke="rgba(253,251,246,1.0)" fill="rgba(79,107,82,1.0)" />
</g>
<g transform="translate(-120.0 -105.49999999999999) rotate(0.0) scale(1.0 1.0)">
<g transform="translate(0.0 7.0) rotate(0.0) scale(1.0 1.0)">
<text x="0" y="0" font-family='"Times New Roman", Times, serif' font-size="14.0" font-weight="700" fill="rgba(47,37,25,1.0)" text-anchor="middle" dominant-baseline="middle">Dark mode</text>
</g>
</g>
<g transform="translate(-100.0 120.0) rotate(0.0) scale(1.0 1.0)">
<circle cx="0" cy="0" r="5.0" stroke="rgba(253,251,246,1.0)" fill="rgba(122,75,107,1.0)" />
</g>
<g transform="translate(-100.0 94.5) rotate(0.0) scale(1.0 1.0)">
<g transform="translate(0.0 7.0) rotate(0.0) scale(1.0 1.0)">
<text x="0" y="0" font-family='"Times New Roman", Times, serif' font-size="14.0" font-weight="700" fill="rgba(47,37,25,1.0)" text-anchor="middle" dominant-baseline="middle">Log cleanup</text>
</g>
</g>
<g transform="translate(140.0 100.0) rotate(0.0) scale(1.0 1.0)">
<circle cx="0" cy="0" r="5.0" stroke="rgba(253,251,246,1.0)" fill="rgba(47,93,117,1.0)" />
</g>
<g transform="translate(140.0 74.5) rotate(0.0) scale(1.0 1.0)">
<g transform="translate(0.0 7.0) rotate(0.0) scale(1.0 1.0)">
<text x="0" y="0" font-family='"Times New Roman", Times, serif' font-size="14.0" font-weight="700" fill="rgba(47,37,25,1.0)" text-anchor="middle" dominant-baseline="middle">Legacy migration</text>
</g>
</g>
</g>
</svg>