<svg width="356.26689768951525" height="345.83090671551315" viewBox="-178.13344884475762 -26.0 356.26689768951525 345.83090671551315" xmlns="http://www.w3.org/2000/svg" role="img">
<title>Build-measure-learn</title>
<desc>Build-measure-learn</desc>
  <defs><marker id="arrow" viewBox="-10 -4 10 8" refX="0" refY="0" orient="auto" markerWidth="10" markerHeight="8"><path d="M -10 -4 L 0 0 L -10 4 Z" fill="rgba(0,0,0,1.0)" stroke="rgba(0,0,0,0.0)" stroke-width="1.0"   /></marker><marker id="prism-arrow" viewBox="-5 -2 5 4" refX="0" refY="0" orient="auto" markerWidth="5" markerHeight="4"><path d="M -5 -2 L 0 0 L -5 2 Z" fill="rgba(140,123,99,1.0)" stroke="rgba(140,123,99,1.0)" stroke-width="0"   /></marker></defs>
  <g transform="translate(0.0 146.91545335775658) rotate(0.0) scale(1.0 1.0)">
<rect x="-178.13344884475762" y="-172.91545335775658" width="356.26689768951525" height="345.83090671551315" stroke="rgba(0,0,0,0.0)" fill="rgba(253,251,246,1.0)" />
</g>
  <g transform="translate(0.0 11.0) rotate(0.0) scale(1.0 1.0)">
<text x="0" y="0" font-family='"Times New Roman", Times, serif' font-size="22.0" font-weight="700" fill="rgba(47,37,25,1.0)" text-anchor="middle" dominant-baseline="middle">Build-measure-learn</text>
</g>
<g transform="translate(-3.8845214843750284 190.8) rotate(0.0) scale(1.0 1.0)">
<path d="M 50.97287408045704 -108.6359337787358 A 186.68460059057043 186.68460059057043 0 0 1 119.98706505553324 1.7618794962294535" fill="rgba(0,0,0,0.0)" stroke="rgba(140,123,99,1.0)" stroke-width="1.2"  marker-end="url(#prism-arrow)" />
<path d="M 61.519364929908306 103.03090671551313 A 184.65063311229446 184.65063311229446 0 0 1 -67.20597152815998 99.41507627596606" fill="rgba(0,0,0,0.0)" stroke="rgba(140,123,99,1.0)" stroke-width="1.2"  marker-end="url(#prism-arrow)" />
<path d="M -119.69896733823425 8.494540491417295 A 194.72836129460308 194.72836129460308 0 0 1 -50.97287408045703 -108.6359337787358" fill="rgba(0,0,0,0.0)" stroke="rgba(140,123,99,1.0)" stroke-width="1.2"  marker-end="url(#prism-arrow)" />
<g transform="translate(-29.39472656249999 -120.0) rotate(0.0) scale(1.0 1.0)">
<rect x="-13.0" y="-22.799999999999997" width="84.789453125" height="45.599999999999994" rx="2.0" ry="2.0" fill="rgba(253,251,246,1.0)" stroke="rgba(140,90,43,1.0)" stroke-width="1.2" />
<g transform="translate(9.799999999999999 0.0) rotate(0.0) scale(1.0 1.0)">
<g transform="scale(0.8166666666666665) translate(-12.0 -12.0)"><path d="M15 12l-9.373 9.373a1 1 0 0 1-3.001-3L12 9M18 15l4-4M21.5 11.5l-1.914-1.914A2 2 0 0 1 19 8.172v-.344a2 2 0 0 0-.586-1.414l-1.657-1.657A6 6 0 0 0 12.516 3H9l1.243 1.243A6 6 0 0 1 12 8.485V10l2 2h1.172a2 2 0 0 1 1.414.586L18.5 14.5" fill="none" stroke="rgba(47,37,25,1.0)" stroke-width="1.469387755102041" stroke-linecap="round" stroke-linejoin="round"/></g>
</g>
<g transform="translate(42.444726562499994 -7.0) rotate(0.0) scale(1.0 1.0)">
<g transform="translate(0.0 7.0) rotate(0.0) scale(1.0 1.0)">
<text x="0" y="0" font-family='"Times New Roman", Times, serif' font-size="14.0" font-weight="700" fill="rgba(47,37,25,1.0)" text-anchor="middle" dominant-baseline="middle">Build</text>
</g>
</g>
</g>
<g transform="translate(64.82812657913264 59.99999999999998) rotate(0.0) scale(1.0 1.0)">
<rect x="-13.0" y="-22.799999999999997" width="104.18984375" height="45.599999999999994" rx="2.0" ry="2.0" fill="rgba(253,251,246,1.0)" stroke="rgba(79,107,82,1.0)" stroke-width="1.2" />
<g transform="translate(9.799999999999999 0.0) rotate(0.0) scale(1.0 1.0)">
<g transform="scale(0.8166666666666665) translate(-12.0 -12.0)"><path d="M12 14l4-4M3.34 19a10 10 0 1 1 17.32 0" fill="none" stroke="rgba(47,37,25,1.0)" stroke-width="1.469387755102041" stroke-linecap="round" stroke-linejoin="round"/></g>
</g>
<g transform="translate(52.144921874999994 -7.0) rotate(0.0) scale(1.0 1.0)">
<g transform="translate(0.0 7.0) rotate(0.0) scale(1.0 1.0)">
<text x="0" y="0" font-family='"Times New Roman", Times, serif' font-size="14.0" font-weight="700" fill="rgba(47,37,25,1.0)" text-anchor="middle" dominant-baseline="middle">Measure</text>
</g>
</g>
</g>
<g transform="translate(-135.2489273603826 60.00000000000004) rotate(0.0) scale(1.0 1.0)">
<rect x="-13.0" y="-22.799999999999997" width="88.6517578125" height="45.599999999999994" rx="2.0" ry="2.0" fill="rgba(253,251,246,1.0)" stroke="rgba(122,75,107,1.0)" stroke-width="1.2" />
<g transform="translate(9.799999999999999 0.0) rotate(0.0) scale(1.0 1.0)">
<g transform="scale(0.8166666666666665) translate(-12.0 -12.0)"><path d="M15 14c.2-1 .7-1.7 1.5-2.5 1-.9 1.5-2.2 1.5-3.5A6 6 0 0 0 6 8c0 1 .2 2.2 1.5 3.5.7.7 1.3 1.5 1.5 2.5M9 18h6M10 22h4" fill="none" stroke="rgba(47,37,25,1.0)" stroke-width="1.469387755102041" stroke-linecap="round" stroke-linejoin="round"/></g>
</g>
<g transform="translate(44.375878906249994 -7.0) rotate(0.0) scale(1.0 1.0)">
<g transform="translate(0.0 7.0) rotate(0.0) scale(1.0 1.0)">
<text x="0" y="0" font-family='"Times New Roman", Times, serif' font-size="14.0" font-weight="700" fill="rgba(47,37,25,1.0)" text-anchor="middle" dominant-baseline="middle">Learn</text>
</g>
</g>
</g>
<g transform="translate(0.0 -7.0) rotate(0.0) scale(1.0 1.0)">
<g transform="translate(0.0 7.0) rotate(0.0) scale(1.0 1.0)">
<text x="0" y="0" font-family='"Times New Roman", Times, serif' font-size="14.0" font-weight="700" fill="rgba(47,37,25,1.0)" text-anchor="middle" dominant-baseline="middle">Kaizen</text>
</g>
</g>
</g>
</svg>