<svg width="349.21923828125" height="336.1333333333333" viewBox="-174.609619140625 -26.0 349.21923828125 336.1333333333333" xmlns="http://www.w3.org/2000/svg" role="img">
<title>Platform tiers</title>
<desc>Platform tiers</desc>
  <defs><marker id="arrow" viewBox="-10 -4 10 8" refX="0" refY="0" orient="auto" markerWidth="10" markerHeight="8"><path d="M -10 -4 L 0 0 L -10 4 Z" fill="rgba(0,0,0,1.0)" stroke="rgba(0,0,0,0.0)" stroke-width="1.0"   /></marker><marker id="prism-arrow" viewBox="-5 -2 5 4" refX="0" refY="0" orient="auto" markerWidth="5" markerHeight="4"><path d="M -5 -2 L 0 0 L -5 2 Z" fill="rgba(140,123,99,1.0)" stroke="rgba(140,123,99,1.0)" stroke-width="0"   /></marker></defs>
  <g transform="translate(0.0 142.06666666666666) rotate(0.0) scale(1.0 1.0)">
<rect x="-174.609619140625" y="-168.06666666666666" width="349.21923828125" height="336.1333333333333" stroke="rgba(0,0,0,0.0)" fill="rgba(253,251,246,1.0)" />
</g>
  <g transform="translate(0.0 11.0) rotate(0.0) scale(1.0 1.0)">
<text x="0" y="0" font-family='"Times New Roman", Times, serif' font-size="22.0" font-weight="700" fill="rgba(47,37,25,1.0)" text-anchor="middle" dominant-baseline="middle">Platform tiers</text>
</g>
<g transform="translate(-12.609619140625 48.0) rotate(0.0) scale(1.0 1.0)">
<g transform="translate(0.0 28.166666666666664) rotate(0.0) scale(1.0 1.0)">
<rect x="-136.0" y="-28.166666666666664" width="272.0" height="56.33333333333333" stroke="rgba(140,90,43,1.0)" fill="rgba(253,251,246,1.0)" />
<g transform="translate(0.0 -15.166666666666666) rotate(0.0) scale(1.0 1.0)">
<g transform="translate(0.0 7.0) rotate(0.0) scale(1.0 1.0)">
<text x="0" y="0" font-family='"Times New Roman", Times, serif' font-size="14.0" font-weight="700" fill="rgba(47,37,25,1.0)" text-anchor="middle" dominant-baseline="middle">Application</text>
</g>
<g transform="translate(0.0 18.333333333333332) rotate(0.0) scale(1.0 1.0)">
<g transform="translate(0.0 6.0) rotate(0.0) scale(1.0 1.0)">
<text x="0" y="0" font-family='"Times New Roman", Times, serif' font-size="12.0" font-weight="400" fill="rgba(140,123,99,1.0)" text-anchor="middle" dominant-baseline="middle">product surfaces</text>
</g>
</g>
</g>
</g>
<g transform="translate(0.0 88.1) rotate(0.0) scale(1.0 1.0)">
<rect x="-136.0" y="-28.166666666666664" width="272.0" height="56.33333333333333" stroke="rgba(79,107,82,1.0)" fill="rgba(253,251,246,1.0)" />
<g transform="translate(0.0 -15.166666666666666) rotate(0.0) scale(1.0 1.0)">
<g transform="translate(0.0 7.0) rotate(0.0) scale(1.0 1.0)">
<text x="0" y="0" font-family='"Times New Roman", Times, serif' font-size="14.0" font-weight="700" fill="rgba(47,37,25,1.0)" text-anchor="middle" dominant-baseline="middle">Services</text>
</g>
<g transform="translate(0.0 18.333333333333332) rotate(0.0) scale(1.0 1.0)">
<g transform="translate(0.0 6.0) rotate(0.0) scale(1.0 1.0)">
<text x="0" y="0" font-family='"Times New Roman", Times, serif' font-size="12.0" font-weight="400" fill="rgba(140,123,99,1.0)" text-anchor="middle" dominant-baseline="middle">domain APIs</text>
</g>
</g>
</g>
</g>
<g transform="translate(0.0 148.03333333333333) rotate(0.0) scale(1.0 1.0)">
<rect x="-136.0" y="-28.166666666666664" width="272.0" height="56.33333333333333" stroke="rgba(122,75,107,1.0)" fill="rgba(253,251,246,1.0)" />
<g transform="translate(0.0 -15.166666666666666) rotate(0.0) scale(1.0 1.0)">
<g transform="translate(0.0 7.0) rotate(0.0) scale(1.0 1.0)">
<text x="0" y="0" font-family='"Times New Roman", Times, serif' font-size="14.0" font-weight="700" fill="rgba(47,37,25,1.0)" text-anchor="middle" dominant-baseline="middle">Data</text>
</g>
<g transform="translate(0.0 18.333333333333332) rotate(0.0) scale(1.0 1.0)">
<g transform="translate(0.0 6.0) rotate(0.0) scale(1.0 1.0)">
<text x="0" y="0" font-family='"Times New Roman", Times, serif' font-size="12.0" font-weight="400" fill="rgba(140,123,99,1.0)" text-anchor="middle" dominant-baseline="middle">warehouse + lake</text>
</g>
</g>
</g>
</g>
<g transform="translate(0.0 207.96666666666664) rotate(0.0) scale(1.0 1.0)">
<rect x="-136.0" y="-28.166666666666664" width="272.0" height="56.33333333333333" stroke="rgba(47,93,117,1.0)" fill="rgba(253,251,246,1.0)" />
<g transform="translate(0.0 -15.166666666666666) rotate(0.0) scale(1.0 1.0)">
<g transform="translate(0.0 7.0) rotate(0.0) scale(1.0 1.0)">
<text x="0" y="0" font-family='"Times New Roman", Times, serif' font-size="14.0" font-weight="700" fill="rgba(47,37,25,1.0)" text-anchor="middle" dominant-baseline="middle">Infrastructure</text>
</g>
<g transform="translate(0.0 18.333333333333332) rotate(0.0) scale(1.0 1.0)">
<g transform="translate(0.0 6.0) rotate(0.0) scale(1.0 1.0)">
<text x="0" y="0" font-family='"Times New Roman", Times, serif' font-size="12.0" font-weight="400" fill="rgba(140,123,99,1.0)" text-anchor="middle" dominant-baseline="middle">compute + network</text>
</g>
</g>
</g>
</g>
<g transform="translate(149.0 28.166666666666664) rotate(0.0) scale(1.0 1.0)">
<text x="0" y="0" font-family='"Times New Roman", Times, serif' font-size="11.0" font-weight="400" fill="rgba(140,123,99,1.0)" text-anchor="start" dominant-baseline="middle">L7</text>
</g>
<g transform="translate(149.0 88.1) rotate(0.0) scale(1.0 1.0)">
<text x="0" y="0" font-family='"Times New Roman", Times, serif' font-size="11.0" font-weight="400" fill="rgba(140,123,99,1.0)" text-anchor="start" dominant-baseline="middle">L5</text>
</g>
<g transform="translate(149.0 148.03333333333333) rotate(0.0) scale(1.0 1.0)">
<text x="0" y="0" font-family='"Times New Roman", Times, serif' font-size="11.0" font-weight="400" fill="rgba(140,123,99,1.0)" text-anchor="start" dominant-baseline="middle">L3</text>
</g>
<g transform="translate(149.0 207.96666666666664) rotate(0.0) scale(1.0 1.0)">
<text x="0" y="0" font-family='"Times New Roman", Times, serif' font-size="11.0" font-weight="400" fill="rgba(140,123,99,1.0)" text-anchor="start" dominant-baseline="middle">L1</text>
</g>
</g>
</svg>