<svg width="480.80299479166666" height="215.89999999999998" viewBox="-240.40149739583333 -22.0 480.80299479166666 215.89999999999998" xmlns="http://www.w3.org/2000/svg" role="img">
<title>Product history</title>
<desc>Product history</desc>
  <defs><marker id="arrow" viewBox="-10 -4 10 8" refX="0" refY="0" orient="auto" markerWidth="10" markerHeight="8"><path d="M -10 -4 L 0 0 L -10 4 Z" fill="rgba(0,0,0,1.0)" stroke="rgba(0,0,0,0.0)" stroke-width="1.0"   /></marker><marker id="prism-arrow" viewBox="-5 -2 5 4" refX="0" refY="0" orient="auto" markerWidth="5" markerHeight="4"><path d="M -5 -2 L 0 0 L -5 2 Z" fill="rgba(110,110,110,1.0)" stroke="rgba(110,110,110,1.0)" stroke-width="0"   /></marker></defs>
  <g transform="translate(0.0 85.94999999999999) rotate(0.0) scale(1.0 1.0)">
<rect x="-240.40149739583333" y="-107.94999999999999" width="480.80299479166666" height="215.89999999999998" stroke="rgba(0,0,0,0.0)" fill="rgba(255,255,255,1.0)" />
</g>
  <g transform="translate(0.0 8.5) rotate(0.0) scale(1.0 1.0)">
<text x="0" y="0" font-family='"Courier New", monospace' font-size="17.0" font-weight="700" fill="rgba(20,20,20,1.0)" text-anchor="middle" dominant-baseline="middle">Product history</text>
</g>
<g transform="translate(-207.40149739583333 125.39999999999999) rotate(0.0) scale(1.0 1.0)">
<g transform="translate(124.72692057291667 -20.75) rotate(0.0) scale(1.0 1.0)" style="opacity: 0.1;">
<rect x="-135.72692057291667" y="-65.64999999999999" width="271.45384114583334" height="131.29999999999998" stroke="rgba(47,47,47,1.0)" fill="rgba(47,47,47,1.0)" />
</g>
<g transform="translate(-5.5 -78.23333333333332) rotate(0.0) scale(1.0 1.0)">
<text x="0" y="0" font-family='"Courier New", monospace' font-size="9.0" font-weight="700" fill="rgba(47,47,47,1.0)" text-anchor="start" dominant-baseline="middle">Pre-revenue</text>
</g>
<path d="M 36.55234375 -50.199999999999996 L 348.62841796875 -50.199999999999996" fill="rgba(0,0,0,0.0)" stroke="rgba(196,196,196,1.0)" stroke-width="1.7999999999999998"   />
<g transform="translate(11.0 0.0) rotate(0.0) scale(1.0 1.0)">
<rect x="-11.0" y="-19.4" width="73.1046875" height="38.8" rx="0.0" ry="0.0" fill="rgba(255,255,255,1.0)" stroke="rgba(20,20,20,1.0)" stroke-width="1.2" />
<g transform="translate(8.399999999999999 0.0) rotate(0.0) scale(1.0 1.0)">
<g transform="scale(0.6999999999999998) translate(-12.0 -12.0)"><path d="M14 9.536V7a4 4 0 0 1 4-4h1.5a.5.5 0 0 1 .5.5V5a4 4 0 0 1-4 4 4 4 0 0 0-4 4c0 2 1 3 1 5a5 5 0 0 1-1 3M4 9a5 5 0 0 1 8 4 5 5 0 0 1-8-4M5 21h14" fill="none" stroke="rgba(20,20,20,1.0)" stroke-width="1.7142857142857146" stroke-linecap="round" stroke-linejoin="round"/></g>
</g>
<g transform="translate(36.70234375 -6.0) rotate(0.0) scale(1.0 1.0)">
<g transform="translate(0.0 6.0) rotate(0.0) scale(1.0 1.0)">
<text x="0" y="0" font-family='"Courier New", monospace' font-size="12.0" font-weight="700" fill="rgba(20,20,20,1.0)" text-anchor="middle" dominant-baseline="middle">Seed</text>
</g>
</g>
</g>
<g transform="translate(106.1046875 0.0) rotate(0.0) scale(1.0 1.0)">
<rect x="-11.0" y="-19.4" width="154.34915364583333" height="38.8" rx="0.0" ry="0.0" fill="rgba(255,255,255,1.0)" stroke="rgba(74,74,74,1.0)" stroke-width="1.2" />
<g transform="translate(8.399999999999999 0.0) rotate(0.0) scale(1.0 1.0)">
<g transform="scale(0.6999999999999998) translate(-12.0 -12.0)"><path d="M14 2v6a2 2 0 0 0 .245.96l5.51 10.08A2 2 0 0 1 18 22H6a2 2 0 0 1-1.755-2.96l5.51-10.08A2 2 0 0 0 10 8V2M6.453 15h11.094M8.5 2h7" fill="none" stroke="rgba(20,20,20,1.0)" stroke-width="1.7142857142857146" stroke-linecap="round" stroke-linejoin="round"/></g>
</g>
<g transform="translate(65.50703125 -6.0) rotate(0.0) scale(1.0 1.0)">
<g transform="translate(0.0 6.0) rotate(0.0) scale(1.0 1.0)">
<text x="0" y="0" font-family='"Courier New", monospace' font-size="12.0" font-weight="700" fill="rgba(20,20,20,1.0)" text-anchor="middle" dominant-baseline="middle">Private beta</text>
</g>
</g>
<g transform="translate(123.28160807291667 -0.2333333333333325) rotate(0.0) scale(1.0 1.0)">
<rect x="-9.067545572916666" y="-8.166666666666666" width="18.135091145833332" height="16.333333333333332" rx="0.0" ry="0.0" fill="rgba(74,74,74,1.0)" stroke="rgba(74,74,74,1.0)" stroke-width="0" />
<text x="0" y="0" font-family='"Courier New", monospace' font-size="9.0" font-weight="700" fill="rgba(255,255,255,1.0)" text-anchor="middle" dominant-baseline="middle">v0</text>
</g>
</g>
<g transform="translate(282.45384114583334 6.300000000000001) rotate(0.0) scale(1.0 1.0)">
<rect x="-11.0" y="-25.7" width="154.34915364583333" height="51.4" rx="0.0" ry="0.0" fill="rgba(255,255,255,1.0)" stroke="rgba(110,110,110,1.0)" stroke-width="1.2" />
<g transform="translate(8.399999999999999 0.0) rotate(0.0) scale(1.0 1.0)">
<g transform="scale(0.6999999999999998) translate(-12.0 -12.0)"><path d="M12 15v5s3.03-.55 4-2c1.08-1.62 0-5 0-5M4.5 16.5c-1.5 1.26-2 5-2 5s3.74-.5 5-2c.71-.84.7-2.13-.09-2.91a2.18 2.18 0 0 0-2.91-.09M9 12a22 22 0 0 1 2-3.95A12.88 12.88 0 0 1 22 2c0 2.72-.78 7.5-6 11a22.4 22.4 0 0 1-4 2zM9 12H4s.55-3.03 2-4c1.62-1.08 5 .05 5 .05" fill="none" stroke="rgba(20,20,20,1.0)" stroke-width="1.7142857142857146" stroke-linecap="round" stroke-linejoin="round"/></g>
</g>
<g transform="translate(65.50703125 -14.7) rotate(0.0) scale(1.0 1.0)">
<g transform="translate(0.0 6.0) rotate(0.0) scale(1.0 1.0)">
<text x="0" y="0" font-family='"Courier New", monospace' font-size="12.0" font-weight="700" fill="rgba(20,20,20,1.0)" text-anchor="middle" dominant-baseline="middle">General</text>
</g>
<g transform="translate(0.0 23.4) rotate(0.0) scale(1.0 1.0)">
<text x="0" y="0" font-family='"Courier New", monospace' font-size="12.0" font-weight="700" fill="rgba(20,20,20,1.0)" text-anchor="middle" dominant-baseline="middle">availability</text>
</g>
</g>
<g transform="translate(123.28160807291667 -6.533333333333333) rotate(0.0) scale(1.0 1.0)">
<rect x="-9.067545572916666" y="-8.166666666666666" width="18.135091145833332" height="16.333333333333332" rx="0.0" ry="0.0" fill="rgba(110,110,110,1.0)" stroke="rgba(110,110,110,1.0)" stroke-width="0" />
<text x="0" y="0" font-family='"Courier New", monospace' font-size="9.0" font-weight="700" fill="rgba(255,255,255,1.0)" text-anchor="middle" dominant-baseline="middle">v1</text>
</g>
</g>
<g transform="translate(36.55234375 -50.199999999999996) rotate(0.0) scale(1.0 1.0)">
<circle cx="0" cy="0" r="5.0" stroke="rgba(255,255,255,1.0)" fill="rgba(20,20,20,1.0)" />
</g>
<g transform="translate(36.55234375 -65.69999999999999) rotate(0.0) scale(1.0 1.0)">
<text x="0" y="0" font-family='"Courier New", monospace' font-size="9.0" font-weight="400" fill="rgba(110,110,110,1.0)" text-anchor="middle" dominant-baseline="middle">2023 Q1</text>
</g>
<g transform="translate(172.27926432291667 -50.199999999999996) rotate(0.0) scale(1.0 1.0)">
<circle cx="0" cy="0" r="5.0" stroke="rgba(255,255,255,1.0)" fill="rgba(74,74,74,1.0)" />
</g>
<g transform="translate(172.27926432291667 -65.69999999999999) rotate(0.0) scale(1.0 1.0)">
<text x="0" y="0" font-family='"Courier New", monospace' font-size="9.0" font-weight="400" fill="rgba(110,110,110,1.0)" text-anchor="middle" dominant-baseline="middle">2023 Q4</text>
</g>
<g transform="translate(348.62841796875 -50.199999999999996) rotate(0.0) scale(1.0 1.0)">
<circle cx="0" cy="0" r="5.0" stroke="rgba(255,255,255,1.0)" fill="rgba(110,110,110,1.0)" />
</g>
<g transform="translate(348.62841796875 -65.69999999999999) rotate(0.0) scale(1.0 1.0)">
<text x="0" y="0" font-family='"Courier New", monospace' font-size="9.0" font-weight="400" fill="rgba(110,110,110,1.0)" text-anchor="middle" dominant-baseline="middle">2024 Q2</text>
</g>
<g transform="translate(0.0 24.9) rotate(0.0) scale(1.0 1.0)">
<g transform="translate(0.0 4.5) rotate(0.0) scale(1.0 1.0)">
<text x="0" y="0" font-family='"Courier New", monospace' font-size="9.0" font-weight="400" fill="rgba(110,110,110,1.0)" text-anchor="start" dominant-baseline="middle">3 founders</text>
</g>
</g>
<g transform="translate(95.10468750000001 24.9) rotate(0.0) scale(1.0 1.0)">
<g transform="translate(0.0 4.5) rotate(0.0) scale(1.0 1.0)">
<text x="0" y="0" font-family='"Courier New", monospace' font-size="9.0" font-weight="400" fill="rgba(110,110,110,1.0)" text-anchor="start" dominant-baseline="middle">40 design partners</text>
</g>
</g>
<g transform="translate(271.45384114583334 37.5) rotate(0.0) scale(1.0 1.0)">
<g transform="translate(0.0 4.5) rotate(0.0) scale(1.0 1.0)">
<text x="0" y="0" font-family='"Courier New", monospace' font-size="9.0" font-weight="400" fill="rgba(110,110,110,1.0)" text-anchor="start" dominant-baseline="middle">self-serve</text>
</g>
</g>
</g>
</svg>