<svg width="433.52968749999997" height="100.0" viewBox="-24.0 -24.0 433.52968749999997 100.0" xmlns="http://www.w3.org/2000/svg" role="img">
<title>flow diagram</title>
<desc>flow diagram</desc>
  <defs><marker id="arrow" viewBox="-10 -4 10 8" refX="0" refY="0" orient="auto" markerWidth="10" markerHeight="8"><path d="M -10 -4 L 0 0 L -10 4 Z" fill="rgba(0,0,0,1.0)" stroke="rgba(0,0,0,0.0)" stroke-width="1.0"   /></marker><marker id="prism-arrow" viewBox="-5 -2 5 4" refX="0" refY="0" orient="auto" markerWidth="5" markerHeight="4"><path d="M -5 -2 L 0 0 L -5 2 Z" fill="rgba(107,114,128,1.0)" stroke="rgba(107,114,128,1.0)" stroke-width="0"   /></marker></defs>
  <g transform="translate(192.76484374999998 26.0) rotate(0.0) scale(1.0 1.0)">
<rect x="-216.76484374999998" y="-50.0" width="433.52968749999997" height="100.0" stroke="rgba(0,0,0,0.0)" fill="rgba(255,255,255,1.0)" />
</g>
  <g transform="translate(0.0 26.0) rotate(0.0) scale(1.0 1.0)">
<g transform="translate(12.0 0.0) rotate(0.0) scale(1.0 1.0)">
<rect x="-12.0" y="-26.0" width="120.05986328125" height="52.0" rx="6.0" ry="6.0" fill="rgba(255,255,255,1.0)" stroke="rgba(15,118,110,1.0)" stroke-width="1.5" />
<g transform="translate(9.1 0.0) rotate(0.0) scale(1.0 1.0)">
<g transform="scale(0.7583333333333333) translate(-12.0 -12.0)"><path d="M21.174 6.812a1 1 0 0 0-3.986-3.987L3.842 16.174a2 2 0 0 0-.5.83l-1.321 4.352a.5.5 0 0 0 .623.622l4.353-1.32a2 2 0 0 0 .83-.497zM15 5l4 4" fill="none" stroke="rgba(17,24,39,1.0)" stroke-width="1.978021978021978" stroke-linecap="round" stroke-linejoin="round"/></g>
</g>
<g transform="translate(60.129931640625 -14.0) rotate(0.0) scale(1.0 1.0)">
<g transform="translate(0.0 6.5) rotate(0.0) scale(1.0 1.0)">
<text x="0" y="0" font-family="Arial, Helvetica, sans-serif" font-size="13.0" font-weight="700" fill="rgba(17,24,39,1.0)" text-anchor="middle" dominant-baseline="middle">Draft</text>
</g>
<g transform="translate(0.0 17.0) rotate(0.0) scale(1.0 1.0)">
<g transform="translate(0.0 5.5) rotate(0.0) scale(1.0 1.0)">
<text x="0" y="0" font-family="Arial, Helvetica, sans-serif" font-size="11.0" font-weight="400" fill="rgba(107,114,128,1.0)" text-anchor="middle" dominant-baseline="middle">outline + notes</text>
</g>
</g>
</g>
</g>
<g transform="translate(156.05986328125 0.0) rotate(0.0) scale(1.0 1.0)">
<rect x="-12.0" y="-26.0" width="105.670703125" height="52.0" rx="6.0" ry="6.0" fill="rgba(255,255,255,1.0)" stroke="rgba(180,83,9,1.0)" stroke-width="1.5" />
<g transform="translate(9.1 0.0) rotate(0.0) scale(1.0 1.0)">
<g transform="scale(0.7583333333333333) translate(-12.0 -12.0)"><path d="M2.062 12.348a1 1 0 0 1 0-.696 10.75 10.75 0 0 1 19.876 0 1 1 0 0 1 0 .696 10.75 10.75 0 0 1-19.876 0M9.0 12.0a3.0 3.0 0 1 0 6.0 0a3.0 3.0 0 1 0 -6.0 0Z" fill="none" stroke="rgba(17,24,39,1.0)" stroke-width="1.978021978021978" stroke-linecap="round" stroke-linejoin="round"/></g>
</g>
<g transform="translate(52.9353515625 -14.0) rotate(0.0) scale(1.0 1.0)">
<g transform="translate(0.0 6.5) rotate(0.0) scale(1.0 1.0)">
<text x="0" y="0" font-family="Arial, Helvetica, sans-serif" font-size="13.0" font-weight="700" fill="rgba(17,24,39,1.0)" text-anchor="middle" dominant-baseline="middle">Review</text>
</g>
<g transform="translate(0.0 17.0) rotate(0.0) scale(1.0 1.0)">
<g transform="translate(0.0 5.5) rotate(0.0) scale(1.0 1.0)">
<text x="0" y="0" font-family="Arial, Helvetica, sans-serif" font-size="11.0" font-weight="400" fill="rgba(107,114,128,1.0)" text-anchor="middle" dominant-baseline="middle">two readers</text>
</g>
</g>
</g>
</g>
<g transform="translate(285.73056640625 0.0) rotate(0.0) scale(1.0 1.0)">
<rect x="-12.0" y="-26.0" width="111.79912109375" height="52.0" rx="6.0" ry="6.0" fill="rgba(255,255,255,1.0)" stroke="rgba(67,56,202,1.0)" stroke-width="1.5" />
<g transform="translate(9.1 0.0) rotate(0.0) scale(1.0 1.0)">
<g transform="scale(0.7583333333333333) translate(-12.0 -12.0)"><path d="M12 15v5s3.03-.55 4-2c1.08-1.62 0-5 0-5M4.5 16.5c-1.5 1.26-2 5-2 5s3.74-.5 5-2c.71-.84.7-2.13-.09-2.91a2.18 2.18 0 0 0-2.91-.09M9 12a22 22 0 0 1 2-3.95A12.88 12.88 0 0 1 22 2c0 2.72-.78 7.5-6 11a22.4 22.4 0 0 1-4 2zM9 12H4s.55-3.03 2-4c1.62-1.08 5 .05 5 .05" fill="none" stroke="rgba(17,24,39,1.0)" stroke-width="1.978021978021978" stroke-linecap="round" stroke-linejoin="round"/></g>
</g>
<g transform="translate(55.999560546875 -14.0) rotate(0.0) scale(1.0 1.0)">
<g transform="translate(0.0 6.5) rotate(0.0) scale(1.0 1.0)">
<text x="0" y="0" font-family="Arial, Helvetica, sans-serif" font-size="13.0" font-weight="700" fill="rgba(17,24,39,1.0)" text-anchor="middle" dominant-baseline="middle">Ship</text>
</g>
<g transform="translate(0.0 17.0) rotate(0.0) scale(1.0 1.0)">
<g transform="translate(0.0 5.5) rotate(0.0) scale(1.0 1.0)">
<text x="0" y="0" font-family="Arial, Helvetica, sans-serif" font-size="11.0" font-weight="400" fill="rgba(107,114,128,1.0)" text-anchor="middle" dominant-baseline="middle">to production</text>
</g>
</g>
</g>
</g>
<path d="M 120.05986328125 0.0 L 144.05986328125 0.0" fill="rgba(0,0,0,0.0)" stroke="rgba(107,114,128,1.0)" stroke-width="1.5"  marker-end="url(#prism-arrow)" />
<path d="M 249.73056640624998 0.0 L 273.73056640625 0.0" fill="rgba(0,0,0,0.0)" stroke="rgba(107,114,128,1.0)" stroke-width="1.5"  marker-end="url(#prism-arrow)" />
</g>
</svg>